<svg width="50" height="42" viewBox="0 0 50 42" fill="none" xmlns="http://www.w3.org/2000/svg">
<path d="M36.7379 0.484589C31.678 0.484589 27.2735 3.06909 25.0014 6.87914C22.7239 3.06909 18.3247 0.484589 13.2648 0.484589C8.41983 0.484589 4.02064 3.0938 1.70019 6.95821C-1.06071 11.549 -0.115342 16.6093 2.09231 21.215C2.09768 21.2248 2.10305 21.2348 2.10842 21.2446H13.0715L15.5853 17.0788C16.0956 16.2338 17.4223 16.2289 17.9325 17.0739L22.5466 24.6643L29.6852 10.8424C30.1955 9.8491 31.7586 9.91828 32.1614 10.9511L36.2222 21.2397H47.8889C47.8944 21.2299 47.8997 21.2199 47.905 21.21C50.1181 16.6043 51.0581 11.544 48.3025 6.95326C45.9821 3.0938 41.5775 0.484589 36.7379 0.484589Z" fill="#FF485A"/>
<path d="M33.0585 24.1553L30.5662 17.8299L23.9593 30.624C23.492 31.5333 22.1062 31.5727 21.5691 30.6981L16.7671 22.7964L15.8378 24.3332C15.6015 24.7236 15.1502 24.9707 14.6615 24.9707H4.53101C10.085 31.973 20.8654 39.183 24.0776 41.2486C24.6308 41.6044 25.3721 41.6044 25.9254 41.2486C29.1375 39.178 39.9179 31.9681 45.4719 24.9707H34.3262C33.7568 24.9706 33.2519 24.6445 33.0585 24.1553Z" fill="#3DA199"/>
</svg>
